{
	"asset":{
		"generator":"Khronos glTF Blender I/O v4.5.51",
		"version":"2.0"
	},
	"scene":0,
	"scenes":[
		{
			"name":"Scene",
			"nodes":[
				23
			]
		}
	],
	"nodes":[
		{
			"name":"Bone.012",
			"rotation":[
				-0.09244320541620255,
				-0.005168033763766289,
				0.01142958365380764,
				0.995638906955719
			],
			"scale":[
				1,
				1.0000001192092896,
				1.0000001192092896
			],
			"translation":[
				-1.6436842997791246e-09,
				0.020737681537866592,
				3.521563485264778e-09
			]
		},
		{
			"children":[
				0
			],
			"name":"Bone.011",
			"rotation":[
				-0.12143953144550323,
				-0.009085911326110363,
				0.030514094978570938,
				0.9920881390571594
			],
			"scale":[
				1,
				0.9999999403953552,
				0.9999999403953552
			],
			"translation":[
				-1.8962964531965554e-10,
				0.03491174429655075,
				8.731149137020111e-11
			]
		},
		{
			"children":[
				1
			],
			"name":"Bone.010",
			"rotation":[
				-0.07277002185583115,
				-0.03375672176480293,
				0.3698475956916809,
				0.9256229400634766
			],
			"scale":[
				0.9999999403953552,
				0.9999998211860657,
				0.9999997615814209
			],
			"translation":[
				7.661323131458175e-09,
				0.030004695057868958,
				4.3655745685100555e-10
			]
		},
		{
			"children":[
				2
			],
			"name":"Bone.006",
			"rotation":[
				0.0025312635116279125,
				0.005927300080657005,
				-0.4043521583080292,
				0.9145806431770325
			],
			"scale":[
				1.0000001192092896,
				1,
				1
			],
			"translation":[
				5.551115123125783e-17,
				0.04053943231701851,
				-1.1641532182693481e-10
			]
		},
		{
			"name":"Bone.015",
			"rotation":[
				-0.0792059600353241,
				-0.0035791832488030195,
				0.016933828592300415,
				0.9967080354690552
			],
			"scale":[
				1,
				1.0000001192092896,
				1
			],
			"translation":[
				-5.311449058353901e-10,
				0.02387848123908043,
				5.8862497098743916e-09
			]
		},
		{
			"children":[
				4
			],
			"name":"Bone.014",
			"rotation":[
				-0.16393470764160156,
				-1.6427931768703274e-05,
				0.0037180897779762745,
				0.9864642024040222
			],
			"scale":[
				1,
				0.9999999403953552,
				0.9999998807907104
			],
			"translation":[
				5.431957106338814e-10,
				0.03657739982008934,
				7.070411811582744e-09
			]
		},
		{
			"children":[
				5
			],
			"name":"Bone.013",
			"rotation":[
				-0.23761999607086182,
				-0.00809719692915678,
				0.09645591676235199,
				0.9665234088897705
			],
			"translation":[
				1.8973711490843925e-10,
				0.02402079850435257,
				9.022187441587448e-10
			]
		},
		{
			"children":[
				6
			],
			"name":"Bone.007",
			"rotation":[
				0.08474137634038925,
				-0.005507815629243851,
				-0.08123037219047546,
				0.9930710792541504
			],
			"scale":[
				1,
				1,
				1.0000001192092896
			],
			"translation":[
				5.551115123125783e-17,
				0.04053943231701851,
				-1.1641532182693481e-10
			]
		},
		{
			"name":"Bone.018",
			"rotation":[
				-0.10473630577325821,
				0.020017599686980247,
				-0.022869182750582695,
				0.994035542011261
			],
			"scale":[
				0.9999999403953552,
				0.9999999403953552,
				0.9999998211860657
			],
			"translation":[
				1.3969838619232178e-09,
				0.01944121904671192,
				6.51925802230835e-09
			]
		},
		{
			"children":[
				8
			],
			"name":"Bone.017",
			"rotation":[
				-0.17577603459358215,
				0.017381280660629272,
				-0.018176697194576263,
				0.9841089248657227
			],
			"translation":[
				3.92901711165905e-10,
				0.03391311317682266,
				1.280568540096283e-09
			]
		},
		{
			"children":[
				9
			],
			"name":"Bone.016",
			"rotation":[
				-0.15639665722846985,
				0.048086103051900864,
				-0.2332933247089386,
				0.9585416316986084
			],
			"scale":[
				1,
				1,
				0.9999999403953552
			],
			"translation":[
				2.967677659171386e-09,
				0.02258688397705555,
				-1.7462298274040222e-10
			]
		},
		{
			"children":[
				10
			],
			"name":"Bone.008",
			"rotation":[
				-0.007070981897413731,
				-0.007466940209269524,
				0.3005465865135193,
				0.953711748123169
			],
			"translation":[
				5.551115123125783e-17,
				0.04053943231701851,
				-1.1641532182693481e-10
			]
		},
		{
			"name":"Bone.021",
			"rotation":[
				-0.12789477407932281,
				0.015651719644665718,
				-0.024502556771039963,
				0.9913614988327026
			],
			"scale":[
				0.9999998807907104,
				0.9999998807907104,
				0.9999998807907104
			],
			"translation":[
				-1.507942215539515e-09,
				0.018217798322439194,
				-3.798049874603748e-09
			]
		},
		{
			"children":[
				12
			],
			"name":"Bone.020",
			"rotation":[
				-0.1660696268081665,
				0.0342002809047699,
				-0.06982024759054184,
				0.983044445514679
			],
			"scale":[
				1,
				1,
				1.0000001192092896
			],
			"translation":[
				1.520675141364336e-09,
				0.027683056890964508,
				4.423782229423523e-09
			]
		},
		{
			"children":[
				13
			],
			"name":"Bone.019",
			"rotation":[
				-0.055804673582315445,
				0.1270860880613327,
				-0.48855575919151306,
				0.8614221811294556
			],
			"scale":[
				0.9999998807907104,
				0.9999998807907104,
				0.9999998211860657
			],
			"translation":[
				-9.911285125951963e-10,
				0.03326058387756348,
				4.656612873077393e-10
			]
		},
		{
			"children":[
				14
			],
			"name":"Bone.009",
			"rotation":[
				-0.06942082196474075,
				-0.057540006935596466,
				0.5634852051734924,
				0.8211907744407654
			],
			"scale":[
				1.0000001192092896,
				1,
				1
			],
			"translation":[
				5.551115123125783e-17,
				0.04053943231701851,
				-1.1641532182693481e-10
			]
		},
		{
			"children":[
				3,
				7,
				11,
				15
			],
			"name":"Bone.002",
			"rotation":[
				-0.08242142200469971,
				-7.0739850710824486e-15,
				-1.9650796545533922e-08,
				0.9965975880622864
			],
			"translation":[
				0,
				0.03755098953843117,
				0
			]
		},
		{
			"name":"Bone.005",
			"rotation":[
				0.08963656425476074,
				-0.06843788176774979,
				0.1449546217918396,
				0.9829902052879333
			],
			"scale":[
				1,
				0.9999999403953552,
				0.9999999403953552
			],
			"translation":[
				5.5698556877814553e-11,
				0.038397617638111115,
				-9.313225746154785e-10
			]
		},
		{
			"children":[
				17
			],
			"name":"Bone.004",
			"rotation":[
				-0.012069541029632092,
				-0.1707639992237091,
				0.29880785942077637,
				0.9388332366943359
			],
			"scale":[
				1,
				1,
				1.0000001192092896
			],
			"translation":[
				-7.588877082298495e-09,
				0.04029734060168266,
				-1.862645149230957e-09
			]
		},
		{
			"children":[
				18
			],
			"name":"Bone.003",
			"rotation":[
				-0.2840299904346466,
				0.08328336477279663,
				-0.45933499932289124,
				0.8374975919723511
			],
			"scale":[
				1,
				0.9999999403953552,
				1
			],
			"translation":[
				0,
				0.03755098953843117,
				0
			]
		},
		{
			"children":[
				16,
				19
			],
			"name":"Palm",
			"rotation":[
				0.07373535633087158,
				1.1888477757793225e-07,
				8.789939442976902e-09,
				0.9972778558731079
			],
			"translation":[
				0,
				0.021197324618697166,
				0
			]
		},
		{
			"children":[
				20
			],
			"name":"StartHand"
		},
		{
			"mesh":0,
			"name":"Hand_3D.002",
			"skin":0
		},
		{
			"children":[
				22,
				21
			],
			"name":"Armature"
		}
	],
	"animations":[
		{
			"channels":[
				{
					"sampler":0,
					"target":{
						"node":21,
						"path":"translation"
					}
				},
				{
					"sampler":1,
					"target":{
						"node":21,
						"path":"rotation"
					}
				},
				{
					"sampler":2,
					"target":{
						"node":21,
						"path":"scale"
					}
				},
				{
					"sampler":3,
					"target":{
						"node":20,
						"path":"translation"
					}
				},
				{
					"sampler":4,
					"target":{
						"node":20,
						"path":"rotation"
					}
				},
				{
					"sampler":5,
					"target":{
						"node":20,
						"path":"scale"
					}
				},
				{
					"sampler":6,
					"target":{
						"node":16,
						"path":"translation"
					}
				},
				{
					"sampler":7,
					"target":{
						"node":16,
						"path":"rotation"
					}
				},
				{
					"sampler":8,
					"target":{
						"node":16,
						"path":"scale"
					}
				},
				{
					"sampler":9,
					"target":{
						"node":3,
						"path":"translation"
					}
				},
				{
					"sampler":10,
					"target":{
						"node":3,
						"path":"rotation"
					}
				},
				{
					"sampler":11,
					"target":{
						"node":3,
						"path":"scale"
					}
				},
				{
					"sampler":12,
					"target":{
						"node":2,
						"path":"translation"
					}
				},
				{
					"sampler":13,
					"target":{
						"node":2,
						"path":"rotation"
					}
				},
				{
					"sampler":14,
					"target":{
						"node":2,
						"path":"scale"
					}
				},
				{
					"sampler":15,
					"target":{
						"node":1,
						"path":"translation"
					}
				},
				{
					"sampler":16,
					"target":{
						"node":1,
						"path":"rotation"
					}
				},
				{
					"sampler":17,
					"target":{
						"node":1,
						"path":"scale"
					}
				},
				{
					"sampler":18,
					"target":{
						"node":0,
						"path":"translation"
					}
				},
				{
					"sampler":19,
					"target":{
						"node":0,
						"path":"rotation"
					}
				},
				{
					"sampler":20,
					"target":{
						"node":0,
						"path":"scale"
					}
				},
				{
					"sampler":21,
					"target":{
						"node":7,
						"path":"translation"
					}
				},
				{
					"sampler":22,
					"target":{
						"node":7,
						"path":"rotation"
					}
				},
				{
					"sampler":23,
					"target":{
						"node":7,
						"path":"scale"
					}
				},
				{
					"sampler":24,
					"target":{
						"node":6,
						"path":"translation"
					}
				},
				{
					"sampler":25,
					"target":{
						"node":6,
						"path":"rotation"
					}
				},
				{
					"sampler":26,
					"target":{
						"node":6,
						"path":"scale"
					}
				},
				{
					"sampler":27,
					"target":{
						"node":5,
						"path":"translation"
					}
				},
				{
					"sampler":28,
					"target":{
						"node":5,
						"path":"rotation"
					}
				},
				{
					"sampler":29,
					"target":{
						"node":5,
						"path":"scale"
					}
				},
				{
					"sampler":30,
					"target":{
						"node":4,
						"path":"translation"
					}
				},
				{
					"sampler":31,
					"target":{
						"node":4,
						"path":"rotation"
					}
				},
				{
					"sampler":32,
					"target":{
						"node":4,
						"path":"scale"
					}
				},
				{
					"sampler":33,
					"target":{
						"node":11,
						"path":"translation"
					}
				},
				{
					"sampler":34,
					"target":{
						"node":11,
						"path":"rotation"
					}
				},
				{
					"sampler":35,
					"target":{
						"node":11,
						"path":"scale"
					}
				},
				{
					"sampler":36,
					"target":{
						"node":10,
						"path":"translation"
					}
				},
				{
					"sampler":37,
					"target":{
						"node":10,
						"path":"rotation"
					}
				},
				{
					"sampler":38,
					"target":{
						"node":10,
						"path":"scale"
					}
				},
				{
					"sampler":39,
					"target":{
						"node":9,
						"path":"translation"
					}
				},
				{
					"sampler":40,
					"target":{
						"node":9,
						"path":"rotation"
					}
				},
				{
					"sampler":41,
					"target":{
						"node":9,
						"path":"scale"
					}
				},
				{
					"sampler":42,
					"target":{
						"node":8,
						"path":"translation"
					}
				},
				{
					"sampler":43,
					"target":{
						"node":8,
						"path":"rotation"
					}
				},
				{
					"sampler":44,
					"target":{
						"node":8,
						"path":"scale"
					}
				},
				{
					"sampler":45,
					"target":{
						"node":15,
						"path":"translation"
					}
				},
				{
					"sampler":46,
					"target":{
						"node":15,
						"path":"rotation"
					}
				},
				{
					"sampler":47,
					"target":{
						"node":15,
						"path":"scale"
					}
				},
				{
					"sampler":48,
					"target":{
						"node":14,
						"path":"translation"
					}
				},
				{
					"sampler":49,
					"target":{
						"node":14,
						"path":"rotation"
					}
				},
				{
					"sampler":50,
					"target":{
						"node":14,
						"path":"scale"
					}
				},
				{
					"sampler":51,
					"target":{
						"node":13,
						"path":"translation"
					}
				},
				{
					"sampler":52,
					"target":{
						"node":13,
						"path":"rotation"
					}
				},
				{
					"sampler":53,
					"target":{
						"node":13,
						"path":"scale"
					}
				},
				{
					"sampler":54,
					"target":{
						"node":12,
						"path":"translation"
					}
				},
				{
					"sampler":55,
					"target":{
						"node":12,
						"path":"rotation"
					}
				},
				{
					"sampler":56,
					"target":{
						"node":12,
						"path":"scale"
					}
				},
				{
					"sampler":57,
					"target":{
						"node":19,
						"path":"translation"
					}
				},
				{
					"sampler":58,
					"target":{
						"node":19,
						"path":"rotation"
					}
				},
				{
					"sampler":59,
					"target":{
						"node":19,
						"path":"scale"
					}
				},
				{
					"sampler":60,
					"target":{
						"node":18,
						"path":"translation"
					}
				},
				{
					"sampler":61,
					"target":{
						"node":18,
						"path":"rotation"
					}
				},
				{
					"sampler":62,
					"target":{
						"node":18,
						"path":"scale"
					}
				},
				{
					"sampler":63,
					"target":{
						"node":17,
						"path":"translation"
					}
				},
				{
					"sampler":64,
					"target":{
						"node":17,
						"path":"rotation"
					}
				},
				{
					"sampler":65,
					"target":{
						"node":17,
						"path":"scale"
					}
				}
			],
			"name":"ArmatureAction",
			"samplers":[
				{
					"input":9,
					"interpolation":"STEP",
					"output":10
				},
				{
					"input":9,
					"interpolation":"STEP",
					"output":11
				},
				{
					"input":9,
					"interpolation":"STEP",
					"output":12
				},
				{
					"input":9,
					"interpolation":"STEP",
					"output":13
				},
				{
					"input":9,
					"interpolation":"STEP",
					"output":14
				},
				{
					"input":9,
					"interpolation":"STEP",
					"output":12
				},
				{
					"input":9,
					"interpolation":"STEP",
					"output":15
				},
				{
					"input":9,
					"interpolation":"STEP",
					"output":16
				},
				{
					"input":9,
					"interpolation":"STEP",
					"output":12
				},
				{
					"input":9,
					"interpolation":"STEP",
					"output":17
				},
				{
					"input":9,
					"interpolation":"STEP",
					"output":18
				},
				{
					"input":9,
					"interpolation":"STEP",
					"output":12
				},
				{
					"input":9,
					"interpolation":"STEP",
					"output":19
				},
				{
					"input":20,
					"interpolation":"LINEAR",
					"output":21
				},
				{
					"input":9,
					"interpolation":"STEP",
					"output":22
				},
				{
					"input":9,
					"interpolation":"LINEAR",
					"output":23
				},
				{
					"input":20,
					"interpolation":"LINEAR",
					"output":24
				},
				{
					"input":9,
					"interpolation":"STEP",
					"output":25
				},
				{
					"input":9,
					"interpolation":"LINEAR",
					"output":26
				},
				{
					"input":20,
					"interpolation":"LINEAR",
					"output":27
				},
				{
					"input":9,
					"interpolation":"STEP",
					"output":28
				},
				{
					"input":9,
					"interpolation":"STEP",
					"output":29
				},
				{
					"input":9,
					"interpolation":"STEP",
					"output":30
				},
				{
					"input":9,
					"interpolation":"STEP",
					"output":31
				},
				{
					"input":9,
					"interpolation":"STEP",
					"output":32
				},
				{
					"input":20,
					"interpolation":"LINEAR",
					"output":33
				},
				{
					"input":9,
					"interpolation":"STEP",
					"output":34
				},
				{
					"input":9,
					"interpolation":"LINEAR",
					"output":35
				},
				{
					"input":20,
					"interpolation":"LINEAR",
					"output":36
				},
				{
					"input":9,
					"interpolation":"STEP",
					"output":37
				},
				{
					"input":9,
					"interpolation":"LINEAR",
					"output":38
				},
				{
					"input":20,
					"interpolation":"LINEAR",
					"output":39
				},
				{
					"input":9,
					"interpolation":"STEP",
					"output":40
				},
				{
					"input":9,
					"interpolation":"STEP",
					"output":41
				},
				{
					"input":9,
					"interpolation":"STEP",
					"output":42
				},
				{
					"input":9,
					"interpolation":"STEP",
					"output":43
				},
				{
					"input":9,
					"interpolation":"STEP",
					"output":44
				},
				{
					"input":20,
					"interpolation":"LINEAR",
					"output":45
				},
				{
					"input":9,
					"interpolation":"STEP",
					"output":46
				},
				{
					"input":9,
					"interpolation":"LINEAR",
					"output":47
				},
				{
					"input":20,
					"interpolation":"LINEAR",
					"output":48
				},
				{
					"input":9,
					"interpolation":"STEP",
					"output":49
				},
				{
					"input":9,
					"interpolation":"LINEAR",
					"output":50
				},
				{
					"input":20,
					"interpolation":"LINEAR",
					"output":51
				},
				{
					"input":9,
					"interpolation":"STEP",
					"output":52
				},
				{
					"input":9,
					"interpolation":"STEP",
					"output":53
				},
				{
					"input":20,
					"interpolation":"LINEAR",
					"output":54
				},
				{
					"input":9,
					"interpolation":"STEP",
					"output":55
				},
				{
					"input":9,
					"interpolation":"LINEAR",
					"output":56
				},
				{
					"input":20,
					"interpolation":"LINEAR",
					"output":57
				},
				{
					"input":9,
					"interpolation":"STEP",
					"output":58
				},
				{
					"input":9,
					"interpolation":"LINEAR",
					"output":59
				},
				{
					"input":20,
					"interpolation":"LINEAR",
					"output":60
				},
				{
					"input":9,
					"interpolation":"STEP",
					"output":61
				},
				{
					"input":9,
					"interpolation":"LINEAR",
					"output":62
				},
				{
					"input":20,
					"interpolation":"LINEAR",
					"output":63
				},
				{
					"input":9,
					"interpolation":"STEP",
					"output":64
				},
				{
					"input":9,
					"interpolation":"STEP",
					"output":65
				},
				{
					"input":20,
					"interpolation":"LINEAR",
					"output":66
				},
				{
					"input":9,
					"interpolation":"STEP",
					"output":67
				},
				{
					"input":9,
					"interpolation":"LINEAR",
					"output":68
				},
				{
					"input":20,
					"interpolation":"LINEAR",
					"output":69
				},
				{
					"input":9,
					"interpolation":"STEP",
					"output":70
				},
				{
					"input":9,
					"interpolation":"LINEAR",
					"output":71
				},
				{
					"input":9,
					"interpolation":"LINEAR",
					"output":72
				},
				{
					"input":9,
					"interpolation":"STEP",
					"output":73
				}
			]
		}
	],
	"materials":[
		{
			"doubleSided":true,
			"name":"Hand_skin_mat"
		}
	],
	"meshes":[
		{
			"name":"Plane.003",
			"primitives":[
				{
					"attributes":{
						"POSITION":0,
						"NORMAL":1,
						"TEXCOORD_0":2,
						"COLOR_0":3,
						"COLOR_1":4,
						"JOINTS_0":5,
						"WEIGHTS_0":6
					},
					"indices":7,
					"material":0
				}
			]
		}
	],
	"skins":[
		{
			"inverseBindMatrices":8,
			"joints":[
				21,
				20,
				16,
				3,
				2,
				1,
				0,
				7,
				6,
				5,
				4,
				11,
				10,
				9,
				8,
				15,
				14,
				13,
				12,
				19,
				18,
				17
			],
			"name":"Armature"
		}
	],
	"accessors":[
		{
			"bufferView":0,
			"componentType":5126,
			"count":2237,
			"max":[
				0.04361513629555702,
				0.19162988662719727,
				0.020415430888533592
			],
			"min":[
				-0.03947596624493599,
				0.004087958950549364,
				-0.045438241213560104
			],
			"type":"VEC3"
		},
		{
			"bufferView":1,
			"componentType":5126,
			"count":2237,
			"type":"VEC3"
		},
		{
			"bufferView":2,
			"componentType":5126,
			"count":2237,
			"type":"VEC2"
		},
		{
			"bufferView":3,
			"componentType":5121,
			"count":2237,
			"normalized":true,
			"type":"VEC4"
		},
		{
			"bufferView":4,
			"componentType":5123,
			"count":2237,
			"normalized":true,
			"type":"VEC4"
		},
		{
			"bufferView":5,
			"componentType":5121,
			"count":2237,
			"type":"VEC4"
		},
		{
			"bufferView":6,
			"componentType":5126,
			"count":2237,
			"type":"VEC4"
		},
		{
			"bufferView":7,
			"componentType":5123,
			"count":11598,
			"type":"SCALAR"
		},
		{
			"bufferView":8,
			"componentType":5126,
			"count":22,
			"type":"MAT4"
		},
		{
			"bufferView":9,
			"componentType":5126,
			"count":2,
			"max":[
				0.4166666666666667
			],
			"min":[
				0
			],
			"type":"SCALAR"
		},
		{
			"bufferView":10,
			"componentType":5126,
			"count":2,
			"type":"VEC3"
		},
		{
			"bufferView":11,
			"componentType":5126,
			"count":2,
			"type":"VEC4"
		},
		{
			"bufferView":12,
			"componentType":5126,
			"count":2,
			"type":"VEC3"
		},
		{
			"bufferView":13,
			"componentType":5126,
			"count":2,
			"type":"VEC3"
		},
		{
			"bufferView":14,
			"componentType":5126,
			"count":2,
			"type":"VEC4"
		},
		{
			"bufferView":15,
			"componentType":5126,
			"count":2,
			"type":"VEC3"
		},
		{
			"bufferView":16,
			"componentType":5126,
			"count":2,
			"type":"VEC4"
		},
		{
			"bufferView":17,
			"componentType":5126,
			"count":2,
			"type":"VEC3"
		},
		{
			"bufferView":18,
			"componentType":5126,
			"count":2,
			"type":"VEC4"
		},
		{
			"bufferView":19,
			"componentType":5126,
			"count":2,
			"type":"VEC3"
		},
		{
			"bufferView":20,
			"componentType":5126,
			"count":11,
			"max":[
				0.4166666666666667
			],
			"min":[
				0
			],
			"type":"SCALAR"
		},
		{
			"bufferView":21,
			"componentType":5126,
			"count":11,
			"type":"VEC4"
		},
		{
			"bufferView":22,
			"componentType":5126,
			"count":2,
			"type":"VEC3"
		},
		{
			"bufferView":23,
			"componentType":5126,
			"count":2,
			"type":"VEC3"
		},
		{
			"bufferView":24,
			"componentType":5126,
			"count":11,
			"type":"VEC4"
		},
		{
			"bufferView":25,
			"componentType":5126,
			"count":2,
			"type":"VEC3"
		},
		{
			"bufferView":26,
			"componentType":5126,
			"count":2,
			"type":"VEC3"
		},
		{
			"bufferView":27,
			"componentType":5126,
			"count":11,
			"type":"VEC4"
		},
		{
			"bufferView":28,
			"componentType":5126,
			"count":2,
			"type":"VEC3"
		},
		{
			"bufferView":29,
			"componentType":5126,
			"count":2,
			"type":"VEC3"
		},
		{
			"bufferView":30,
			"componentType":5126,
			"count":2,
			"type":"VEC4"
		},
		{
			"bufferView":31,
			"componentType":5126,
			"count":2,
			"type":"VEC3"
		},
		{
			"bufferView":32,
			"componentType":5126,
			"count":2,
			"type":"VEC3"
		},
		{
			"bufferView":33,
			"componentType":5126,
			"count":11,
			"type":"VEC4"
		},
		{
			"bufferView":34,
			"componentType":5126,
			"count":2,
			"type":"VEC3"
		},
		{
			"bufferView":35,
			"componentType":5126,
			"count":2,
			"type":"VEC3"
		},
		{
			"bufferView":36,
			"componentType":5126,
			"count":11,
			"type":"VEC4"
		},
		{
			"bufferView":37,
			"componentType":5126,
			"count":2,
			"type":"VEC3"
		},
		{
			"bufferView":38,
			"componentType":5126,
			"count":2,
			"type":"VEC3"
		},
		{
			"bufferView":39,
			"componentType":5126,
			"count":11,
			"type":"VEC4"
		},
		{
			"bufferView":40,
			"componentType":5126,
			"count":2,
			"type":"VEC3"
		},
		{
			"bufferView":41,
			"componentType":5126,
			"count":2,
			"type":"VEC3"
		},
		{
			"bufferView":42,
			"componentType":5126,
			"count":2,
			"type":"VEC4"
		},
		{
			"bufferView":43,
			"componentType":5126,
			"count":2,
			"type":"VEC3"
		},
		{
			"bufferView":44,
			"componentType":5126,
			"count":2,
			"type":"VEC3"
		},
		{
			"bufferView":45,
			"componentType":5126,
			"count":11,
			"type":"VEC4"
		},
		{
			"bufferView":46,
			"componentType":5126,
			"count":2,
			"type":"VEC3"
		},
		{
			"bufferView":47,
			"componentType":5126,
			"count":2,
			"type":"VEC3"
		},
		{
			"bufferView":48,
			"componentType":5126,
			"count":11,
			"type":"VEC4"
		},
		{
			"bufferView":49,
			"componentType":5126,
			"count":2,
			"type":"VEC3"
		},
		{
			"bufferView":50,
			"componentType":5126,
			"count":2,
			"type":"VEC3"
		},
		{
			"bufferView":51,
			"componentType":5126,
			"count":11,
			"type":"VEC4"
		},
		{
			"bufferView":52,
			"componentType":5126,
			"count":2,
			"type":"VEC3"
		},
		{
			"bufferView":53,
			"componentType":5126,
			"count":2,
			"type":"VEC3"
		},
		{
			"bufferView":54,
			"componentType":5126,
			"count":11,
			"type":"VEC4"
		},
		{
			"bufferView":55,
			"componentType":5126,
			"count":2,
			"type":"VEC3"
		},
		{
			"bufferView":56,
			"componentType":5126,
			"count":2,
			"type":"VEC3"
		},
		{
			"bufferView":57,
			"componentType":5126,
			"count":11,
			"type":"VEC4"
		},
		{
			"bufferView":58,
			"componentType":5126,
			"count":2,
			"type":"VEC3"
		},
		{
			"bufferView":59,
			"componentType":5126,
			"count":2,
			"type":"VEC3"
		},
		{
			"bufferView":60,
			"componentType":5126,
			"count":11,
			"type":"VEC4"
		},
		{
			"bufferView":61,
			"componentType":5126,
			"count":2,
			"type":"VEC3"
		},
		{
			"bufferView":62,
			"componentType":5126,
			"count":2,
			"type":"VEC3"
		},
		{
			"bufferView":63,
			"componentType":5126,
			"count":11,
			"type":"VEC4"
		},
		{
			"bufferView":64,
			"componentType":5126,
			"count":2,
			"type":"VEC3"
		},
		{
			"bufferView":65,
			"componentType":5126,
			"count":2,
			"type":"VEC3"
		},
		{
			"bufferView":66,
			"componentType":5126,
			"count":11,
			"type":"VEC4"
		},
		{
			"bufferView":67,
			"componentType":5126,
			"count":2,
			"type":"VEC3"
		},
		{
			"bufferView":68,
			"componentType":5126,
			"count":2,
			"type":"VEC3"
		},
		{
			"bufferView":69,
			"componentType":5126,
			"count":11,
			"type":"VEC4"
		},
		{
			"bufferView":70,
			"componentType":5126,
			"count":2,
			"type":"VEC3"
		},
		{
			"bufferView":71,
			"componentType":5126,
			"count":2,
			"type":"VEC3"
		},
		{
			"bufferView":72,
			"componentType":5126,
			"count":2,
			"type":"VEC4"
		},
		{
			"bufferView":73,
			"componentType":5126,
			"count":2,
			"type":"VEC3"
		}
	],
	"bufferViews":[
		{
			"buffer":0,
			"byteLength":26844,
			"byteOffset":0,
			"target":34962
		},
		{
			"buffer":0,
			"byteLength":26844,
			"byteOffset":26844,
			"target":34962
		},
		{
			"buffer":0,
			"byteLength":17896,
			"byteOffset":53688,
			"target":34962
		},
		{
			"buffer":0,
			"byteLength":8948,
			"byteOffset":71584,
			"target":34962
		},
		{
			"buffer":0,
			"byteLength":17896,
			"byteOffset":80532,
			"target":34962
		},
		{
			"buffer":0,
			"byteLength":8948,
			"byteOffset":98428,
			"target":34962
		},
		{
			"buffer":0,
			"byteLength":35792,
			"byteOffset":107376,
			"target":34962
		},
		{
			"buffer":0,
			"byteLength":23196,
			"byteOffset":143168,
			"target":34963
		},
		{
			"buffer":0,
			"byteLength":1408,
			"byteOffset":166364
		},
		{
			"buffer":0,
			"byteLength":8,
			"byteOffset":167772
		},
		{
			"buffer":0,
			"byteLength":24,
			"byteOffset":167780
		},
		{
			"buffer":0,
			"byteLength":32,
			"byteOffset":167804
		},
		{
			"buffer":0,
			"byteLength":24,
			"byteOffset":167836
		},
		{
			"buffer":0,
			"byteLength":24,
			"byteOffset":167860
		},
		{
			"buffer":0,
			"byteLength":32,
			"byteOffset":167884
		},
		{
			"buffer":0,
			"byteLength":24,
			"byteOffset":167916
		},
		{
			"buffer":0,
			"byteLength":32,
			"byteOffset":167940
		},
		{
			"buffer":0,
			"byteLength":24,
			"byteOffset":167972
		},
		{
			"buffer":0,
			"byteLength":32,
			"byteOffset":167996
		},
		{
			"buffer":0,
			"byteLength":24,
			"byteOffset":168028
		},
		{
			"buffer":0,
			"byteLength":44,
			"byteOffset":168052
		},
		{
			"buffer":0,
			"byteLength":176,
			"byteOffset":168096
		},
		{
			"buffer":0,
			"byteLength":24,
			"byteOffset":168272
		},
		{
			"buffer":0,
			"byteLength":24,
			"byteOffset":168296
		},
		{
			"buffer":0,
			"byteLength":176,
			"byteOffset":168320
		},
		{
			"buffer":0,
			"byteLength":24,
			"byteOffset":168496
		},
		{
			"buffer":0,
			"byteLength":24,
			"byteOffset":168520
		},
		{
			"buffer":0,
			"byteLength":176,
			"byteOffset":168544
		},
		{
			"buffer":0,
			"byteLength":24,
			"byteOffset":168720
		},
		{
			"buffer":0,
			"byteLength":24,
			"byteOffset":168744
		},
		{
			"buffer":0,
			"byteLength":32,
			"byteOffset":168768
		},
		{
			"buffer":0,
			"byteLength":24,
			"byteOffset":168800
		},
		{
			"buffer":0,
			"byteLength":24,
			"byteOffset":168824
		},
		{
			"buffer":0,
			"byteLength":176,
			"byteOffset":168848
		},
		{
			"buffer":0,
			"byteLength":24,
			"byteOffset":169024
		},
		{
			"buffer":0,
			"byteLength":24,
			"byteOffset":169048
		},
		{
			"buffer":0,
			"byteLength":176,
			"byteOffset":169072
		},
		{
			"buffer":0,
			"byteLength":24,
			"byteOffset":169248
		},
		{
			"buffer":0,
			"byteLength":24,
			"byteOffset":169272
		},
		{
			"buffer":0,
			"byteLength":176,
			"byteOffset":169296
		},
		{
			"buffer":0,
			"byteLength":24,
			"byteOffset":169472
		},
		{
			"buffer":0,
			"byteLength":24,
			"byteOffset":169496
		},
		{
			"buffer":0,
			"byteLength":32,
			"byteOffset":169520
		},
		{
			"buffer":0,
			"byteLength":24,
			"byteOffset":169552
		},
		{
			"buffer":0,
			"byteLength":24,
			"byteOffset":169576
		},
		{
			"buffer":0,
			"byteLength":176,
			"byteOffset":169600
		},
		{
			"buffer":0,
			"byteLength":24,
			"byteOffset":169776
		},
		{
			"buffer":0,
			"byteLength":24,
			"byteOffset":169800
		},
		{
			"buffer":0,
			"byteLength":176,
			"byteOffset":169824
		},
		{
			"buffer":0,
			"byteLength":24,
			"byteOffset":170000
		},
		{
			"buffer":0,
			"byteLength":24,
			"byteOffset":170024
		},
		{
			"buffer":0,
			"byteLength":176,
			"byteOffset":170048
		},
		{
			"buffer":0,
			"byteLength":24,
			"byteOffset":170224
		},
		{
			"buffer":0,
			"byteLength":24,
			"byteOffset":170248
		},
		{
			"buffer":0,
			"byteLength":176,
			"byteOffset":170272
		},
		{
			"buffer":0,
			"byteLength":24,
			"byteOffset":170448
		},
		{
			"buffer":0,
			"byteLength":24,
			"byteOffset":170472
		},
		{
			"buffer":0,
			"byteLength":176,
			"byteOffset":170496
		},
		{
			"buffer":0,
			"byteLength":24,
			"byteOffset":170672
		},
		{
			"buffer":0,
			"byteLength":24,
			"byteOffset":170696
		},
		{
			"buffer":0,
			"byteLength":176,
			"byteOffset":170720
		},
		{
			"buffer":0,
			"byteLength":24,
			"byteOffset":170896
		},
		{
			"buffer":0,
			"byteLength":24,
			"byteOffset":170920
		},
		{
			"buffer":0,
			"byteLength":176,
			"byteOffset":170944
		},
		{
			"buffer":0,
			"byteLength":24,
			"byteOffset":171120
		},
		{
			"buffer":0,
			"byteLength":24,
			"byteOffset":171144
		},
		{
			"buffer":0,
			"byteLength":176,
			"byteOffset":171168
		},
		{
			"buffer":0,
			"byteLength":24,
			"byteOffset":171344
		},
		{
			"buffer":0,
			"byteLength":24,
			"byteOffset":171368
		},
		{
			"buffer":0,
			"byteLength":176,
			"byteOffset":171392
		},
		{
			"buffer":0,
			"byteLength":24,
			"byteOffset":171568
		},
		{
			"buffer":0,
			"byteLength":24,
			"byteOffset":171592
		},
		{
			"buffer":0,
			"byteLength":32,
			"byteOffset":171616
		},
		{
			"buffer":0,
			"byteLength":24,
			"byteOffset":171648
		}
	],
	"buffers":[
		{
			"byteLength":171672,
			"uri":"hand.bin"
		}
	]
}
