{
	"asset":{
		"generator":"Khronos glTF Blender I/O v4.5.51",
		"version":"2.0"
	},
	"scene":0,
	"scenes":[
		{
			"name":"Scene",
			"nodes":[
				23,
				47
			]
		}
	],
	"nodes":[
		{
			"name":"Bone.012",
			"rotation":[
				-0.09244320541620255,
				-0.005168033763766289,
				0.01142958365380764,
				0.995638906955719
			],
			"scale":[
				1,
				1.0000001192092896,
				1.0000001192092896
			],
			"translation":[
				1.8845412341761403e-08,
				0.02073768340051174,
				3.5797711461782455e-09
			]
		},
		{
			"children":[
				0
			],
			"name":"Bone.011",
			"rotation":[
				-0.12143953144550323,
				-0.009085911326110363,
				0.030514094978570938,
				0.9920881390571594
			],
			"scale":[
				1,
				0.9999999403953552,
				0.9999999403953552
			],
			"translation":[
				1.6730155039113015e-09,
				0.03491174429655075,
				-8.149072527885437e-10
			]
		},
		{
			"children":[
				1
			],
			"name":"Bone.010",
			"rotation":[
				-0.07277002185583115,
				-0.03375672176480293,
				0.3698475956916809,
				0.9256229400634766
			],
			"scale":[
				0.9999999403953552,
				0.9999998211860657,
				0.9999997615814209
			],
			"translation":[
				6.730001000931907e-09,
				0.030004702508449554,
				3.4924596548080444e-10
			]
		},
		{
			"children":[
				2
			],
			"name":"Bone.006",
			"rotation":[
				0.0025312635116279125,
				0.005927300080657005,
				-0.4043521583080292,
				0.9145806431770325
			],
			"scale":[
				1.0000001192092896,
				1,
				1
			],
			"translation":[
				-1.5588526025567262e-09,
				0.04053943231701851,
				-2.3280932737179683e-11
			]
		},
		{
			"name":"Bone.015",
			"rotation":[
				-0.0792059600353241,
				-0.0035791832488030195,
				0.016933828592300415,
				0.9967080354690552
			],
			"scale":[
				1,
				1.0000001192092896,
				1
			],
			"translation":[
				2.0889274310320616e-08,
				0.02387849986553192,
				1.5133991837501526e-08
			]
		},
		{
			"children":[
				4
			],
			"name":"Bone.014",
			"rotation":[
				-0.16393470764160156,
				-1.6427931768703274e-05,
				0.0037180897779762745,
				0.9864642024040222
			],
			"scale":[
				1,
				0.9999999403953552,
				0.9999998807907104
			],
			"translation":[
				4.734147296403535e-09,
				0.03657739609479904,
				5.587935447692871e-09
			]
		},
		{
			"children":[
				5
			],
			"name":"Bone.013",
			"rotation":[
				-0.23761999607086182,
				-0.00809719692915678,
				0.09645591676235199,
				0.9665234088897705
			],
			"translation":[
				2.440412316673246e-08,
				0.02402079850435257,
				2.3283064365386963e-10
			]
		},
		{
			"children":[
				6
			],
			"name":"Bone.007",
			"rotation":[
				0.08474137634038925,
				-0.005507815629243851,
				-0.08123037219047546,
				0.9930710792541504
			],
			"scale":[
				1,
				1,
				1.0000001192092896
			],
			"translation":[
				-1.5588526025567262e-09,
				0.04053943231701851,
				-2.3280932737179683e-11
			]
		},
		{
			"name":"Bone.018",
			"rotation":[
				-0.10473630577325821,
				0.020017599686980247,
				-0.022869182750582695,
				0.994035542011261
			],
			"scale":[
				0.9999999403953552,
				0.9999999403953552,
				0.9999998211860657
			],
			"translation":[
				1.909211277961731e-08,
				0.019441215321421623,
				1.1641532182693481e-08
			]
		},
		{
			"children":[
				8
			],
			"name":"Bone.017",
			"rotation":[
				-0.17577603459358215,
				0.017381280660629272,
				-0.018176697194576263,
				0.9841089248657227
			],
			"translation":[
				-1.2179953046143055e-08,
				0.03391311690211296,
				-2.3283064365386963e-09
			]
		},
		{
			"children":[
				9
			],
			"name":"Bone.016",
			"rotation":[
				-0.15639665722846985,
				0.048086103051900864,
				-0.2332933247089386,
				0.9585416316986084
			],
			"scale":[
				1,
				1,
				0.9999999403953552
			],
			"translation":[
				-7.57612639290528e-10,
				0.022586889564990997,
				-2.3283064365386963e-10
			]
		},
		{
			"children":[
				10
			],
			"name":"Bone.008",
			"rotation":[
				-0.007070981897413731,
				-0.007466940209269524,
				0.3005465865135193,
				0.953711748123169
			],
			"translation":[
				-1.5588526025567262e-09,
				0.04053943231701851,
				-2.3280932737179683e-11
			]
		},
		{
			"name":"Bone.021",
			"rotation":[
				-0.12789477407932281,
				0.015651719644665718,
				-0.024502556771039963,
				0.9913614988327026
			],
			"scale":[
				0.9999998807907104,
				0.9999998807907104,
				0.9999998807907104
			],
			"translation":[
				-1.507942215539515e-09,
				0.018217796459794044,
				-1.6298145055770874e-09
			]
		},
		{
			"children":[
				12
			],
			"name":"Bone.020",
			"rotation":[
				-0.1660696268081665,
				0.0342002809047699,
				-0.06982024759054184,
				0.983044445514679
			],
			"scale":[
				1,
				1,
				1.0000001192092896
			],
			"translation":[
				-2.204615157097578e-09,
				0.027683056890964508,
				4.656612873077393e-10
			]
		},
		{
			"children":[
				13
			],
			"name":"Bone.019",
			"rotation":[
				-0.055804673582315445,
				0.1270860880613327,
				-0.48855575919151306,
				0.8614221811294556
			],
			"scale":[
				0.9999998807907104,
				0.9999998807907104,
				0.9999998211860657
			],
			"translation":[
				-7.510386978992756e-09,
				0.03326058387756348,
				-4.656612873077393e-10
			]
		},
		{
			"children":[
				14
			],
			"name":"Bone.009",
			"rotation":[
				-0.06942082196474075,
				-0.057540006935596466,
				0.5634852051734924,
				0.8211907744407654
			],
			"scale":[
				1.0000001192092896,
				1,
				1
			],
			"translation":[
				-1.5588526025567262e-09,
				0.04053943231701851,
				-2.3280932737179683e-11
			]
		},
		{
			"children":[
				3,
				7,
				11,
				15
			],
			"name":"Bone.002",
			"rotation":[
				-0.08242142200469971,
				-7.0739850710824486e-15,
				-1.9650796545533922e-08,
				0.9965975880622864
			],
			"translation":[
				7.4326400589797e-10,
				0.03755098953843117,
				-1.396998072777933e-10
			]
		},
		{
			"name":"Bone.005",
			"rotation":[
				0.08963656425476074,
				-0.06843788176774979,
				0.1449546217918396,
				0.9829902052879333
			],
			"scale":[
				1,
				0.9999999403953552,
				0.9999999403953552
			],
			"translation":[
				-1.8069465923531425e-09,
				0.03839762136340141,
				-2.7939677238464355e-09
			]
		},
		{
			"children":[
				17
			],
			"name":"Bone.004",
			"rotation":[
				-0.012069541029632092,
				-0.1707639992237091,
				0.29880785942077637,
				0.9388332366943359
			],
			"scale":[
				1,
				1,
				1.0000001192092896
			],
			"translation":[
				-7.588877082298495e-09,
				0.04029734060168266,
				3.725290298461914e-09
			]
		},
		{
			"children":[
				18
			],
			"name":"Bone.003",
			"rotation":[
				-0.2840299904346466,
				0.08328336477279663,
				-0.45933499932289124,
				0.8374975919723511
			],
			"scale":[
				1,
				0.9999999403953552,
				1
			],
			"translation":[
				7.4326400589797e-10,
				0.03755098953843117,
				-1.396998072777933e-10
			]
		},
		{
			"children":[
				16,
				19
			],
			"name":"Palm",
			"rotation":[
				0.07373535633087158,
				1.1888477757793225e-07,
				8.789939442976902e-09,
				0.9972778558731079
			],
			"translation":[
				0,
				0.021197324618697166,
				0
			]
		},
		{
			"children":[
				20
			],
			"name":"StartHand"
		},
		{
			"mesh":0,
			"name":"Hand_3D.002",
			"skin":0
		},
		{
			"children":[
				22,
				21
			],
			"name":"left",
			"translation":[
				-0.15000000596046448,
				0,
				0
			]
		},
		{
			"name":"Bone.012",
			"rotation":[
				-0.09244320541620255,
				-0.005168033763766289,
				0.01142958365380764,
				0.995638906955719
			],
			"scale":[
				1,
				1.0000001192092896,
				1.0000001192092896
			],
			"translation":[
				1.8845412341761403e-08,
				0.02073768340051174,
				3.5797711461782455e-09
			]
		},
		{
			"children":[
				24
			],
			"name":"Bone.011",
			"rotation":[
				-0.12143953144550323,
				-0.009085911326110363,
				0.030514094978570938,
				0.9920881390571594
			],
			"scale":[
				1,
				0.9999999403953552,
				0.9999999403953552
			],
			"translation":[
				1.6730155039113015e-09,
				0.03491174429655075,
				-8.149072527885437e-10
			]
		},
		{
			"children":[
				25
			],
			"name":"Bone.010",
			"rotation":[
				-0.07277002185583115,
				-0.03375672176480293,
				0.3698475956916809,
				0.9256229400634766
			],
			"scale":[
				0.9999999403953552,
				0.9999998211860657,
				0.9999997615814209
			],
			"translation":[
				6.730001000931907e-09,
				0.030004702508449554,
				3.4924596548080444e-10
			]
		},
		{
			"children":[
				26
			],
			"name":"Bone.006",
			"rotation":[
				0.0025312635116279125,
				0.005927300080657005,
				-0.4043521583080292,
				0.9145806431770325
			],
			"scale":[
				1.0000001192092896,
				1,
				1
			],
			"translation":[
				-1.5588526025567262e-09,
				0.04053943231701851,
				-2.3280932737179683e-11
			]
		},
		{
			"name":"Bone.015",
			"rotation":[
				-0.0792059600353241,
				-0.0035791832488030195,
				0.016933828592300415,
				0.9967080354690552
			],
			"scale":[
				1,
				1.0000001192092896,
				1
			],
			"translation":[
				2.0889274310320616e-08,
				0.02387849986553192,
				1.5133991837501526e-08
			]
		},
		{
			"children":[
				28
			],
			"name":"Bone.014",
			"rotation":[
				-0.16393470764160156,
				-1.6427931768703274e-05,
				0.0037180897779762745,
				0.9864642024040222
			],
			"scale":[
				1,
				0.9999999403953552,
				0.9999998807907104
			],
			"translation":[
				4.734147296403535e-09,
				0.03657739609479904,
				5.587935447692871e-09
			]
		},
		{
			"children":[
				29
			],
			"name":"Bone.013",
			"rotation":[
				-0.23761999607086182,
				-0.00809719692915678,
				0.09645591676235199,
				0.9665234088897705
			],
			"translation":[
				2.440412316673246e-08,
				0.02402079850435257,
				2.3283064365386963e-10
			]
		},
		{
			"children":[
				30
			],
			"name":"Bone.007",
			"rotation":[
				0.08474137634038925,
				-0.005507815629243851,
				-0.08123037219047546,
				0.9930710792541504
			],
			"scale":[
				1,
				1,
				1.0000001192092896
			],
			"translation":[
				-1.5588526025567262e-09,
				0.04053943231701851,
				-2.3280932737179683e-11
			]
		},
		{
			"name":"Bone.018",
			"rotation":[
				-0.10473630577325821,
				0.020017599686980247,
				-0.022869182750582695,
				0.994035542011261
			],
			"scale":[
				0.9999999403953552,
				0.9999999403953552,
				0.9999998211860657
			],
			"translation":[
				1.909211277961731e-08,
				0.019441215321421623,
				1.1641532182693481e-08
			]
		},
		{
			"children":[
				32
			],
			"name":"Bone.017",
			"rotation":[
				-0.17577603459358215,
				0.017381280660629272,
				-0.018176697194576263,
				0.9841089248657227
			],
			"translation":[
				-1.2179953046143055e-08,
				0.03391311690211296,
				-2.3283064365386963e-09
			]
		},
		{
			"children":[
				33
			],
			"name":"Bone.016",
			"rotation":[
				-0.15639665722846985,
				0.048086103051900864,
				-0.2332933247089386,
				0.9585416316986084
			],
			"scale":[
				1,
				1,
				0.9999999403953552
			],
			"translation":[
				-7.57612639290528e-10,
				0.022586889564990997,
				-2.3283064365386963e-10
			]
		},
		{
			"children":[
				34
			],
			"name":"Bone.008",
			"rotation":[
				-0.007070981897413731,
				-0.007466940209269524,
				0.3005465865135193,
				0.953711748123169
			],
			"translation":[
				-1.5588526025567262e-09,
				0.04053943231701851,
				-2.3280932737179683e-11
			]
		},
		{
			"name":"Bone.021",
			"rotation":[
				-0.12789477407932281,
				0.015651719644665718,
				-0.024502556771039963,
				0.9913614988327026
			],
			"scale":[
				0.9999998807907104,
				0.9999998807907104,
				0.9999998807907104
			],
			"translation":[
				-1.507942215539515e-09,
				0.018217796459794044,
				-1.6298145055770874e-09
			]
		},
		{
			"children":[
				36
			],
			"name":"Bone.020",
			"rotation":[
				-0.1660696268081665,
				0.0342002809047699,
				-0.06982024759054184,
				0.983044445514679
			],
			"scale":[
				1,
				1,
				1.0000001192092896
			],
			"translation":[
				-2.204615157097578e-09,
				0.027683056890964508,
				4.656612873077393e-10
			]
		},
		{
			"children":[
				37
			],
			"name":"Bone.019",
			"rotation":[
				-0.055804673582315445,
				0.1270860880613327,
				-0.48855575919151306,
				0.8614221811294556
			],
			"scale":[
				0.9999998807907104,
				0.9999998807907104,
				0.9999998211860657
			],
			"translation":[
				-7.510386978992756e-09,
				0.03326058387756348,
				-4.656612873077393e-10
			]
		},
		{
			"children":[
				38
			],
			"name":"Bone.009",
			"rotation":[
				-0.06942082196474075,
				-0.057540006935596466,
				0.5634852051734924,
				0.8211907744407654
			],
			"scale":[
				1.0000001192092896,
				1,
				1
			],
			"translation":[
				-1.5588526025567262e-09,
				0.04053943231701851,
				-2.3280932737179683e-11
			]
		},
		{
			"children":[
				27,
				31,
				35,
				39
			],
			"name":"Bone.002",
			"rotation":[
				-0.08242142200469971,
				-7.0739850710824486e-15,
				-1.9650796545533922e-08,
				0.9965975880622864
			],
			"translation":[
				7.4326400589797e-10,
				0.03755098953843117,
				-1.396998072777933e-10
			]
		},
		{
			"name":"Bone.005",
			"rotation":[
				0.08963656425476074,
				-0.06843788176774979,
				0.1449546217918396,
				0.9829902052879333
			],
			"scale":[
				1,
				0.9999999403953552,
				0.9999999403953552
			],
			"translation":[
				-1.8069465923531425e-09,
				0.03839762136340141,
				-2.7939677238464355e-09
			]
		},
		{
			"children":[
				41
			],
			"name":"Bone.004",
			"rotation":[
				-0.012069541029632092,
				-0.1707639992237091,
				0.29880785942077637,
				0.9388332366943359
			],
			"scale":[
				1,
				1,
				1.0000001192092896
			],
			"translation":[
				-7.588877082298495e-09,
				0.04029734060168266,
				3.725290298461914e-09
			]
		},
		{
			"children":[
				42
			],
			"name":"Bone.003",
			"rotation":[
				-0.2840299904346466,
				0.08328336477279663,
				-0.45933499932289124,
				0.8374975919723511
			],
			"scale":[
				1,
				0.9999999403953552,
				1
			],
			"translation":[
				7.4326400589797e-10,
				0.03755098953843117,
				-1.396998072777933e-10
			]
		},
		{
			"children":[
				40,
				43
			],
			"name":"Palm",
			"rotation":[
				0.07373535633087158,
				1.1888477757793225e-07,
				8.789939442976902e-09,
				0.9972778558731079
			],
			"translation":[
				0,
				0.021197324618697166,
				0
			]
		},
		{
			"children":[
				44
			],
			"name":"StartHand"
		},
		{
			"mesh":1,
			"name":"Hand_3D.001",
			"skin":1
		},
		{
			"children":[
				46,
				45
			],
			"name":"right",
			"rotation":[
				1,
				0,
				0,
				0
			],
			"scale":[
				-1,
				-1,
				-1
			],
			"translation":[
				0.15000000596046448,
				0,
				0
			]
		}
	],
	"animations":[
		{
			"channels":[
				{
					"sampler":0,
					"target":{
						"node":21,
						"path":"translation"
					}
				},
				{
					"sampler":1,
					"target":{
						"node":21,
						"path":"rotation"
					}
				},
				{
					"sampler":2,
					"target":{
						"node":21,
						"path":"scale"
					}
				},
				{
					"sampler":3,
					"target":{
						"node":20,
						"path":"translation"
					}
				},
				{
					"sampler":4,
					"target":{
						"node":20,
						"path":"rotation"
					}
				},
				{
					"sampler":5,
					"target":{
						"node":20,
						"path":"scale"
					}
				},
				{
					"sampler":6,
					"target":{
						"node":16,
						"path":"translation"
					}
				},
				{
					"sampler":7,
					"target":{
						"node":16,
						"path":"rotation"
					}
				},
				{
					"sampler":8,
					"target":{
						"node":16,
						"path":"scale"
					}
				},
				{
					"sampler":9,
					"target":{
						"node":3,
						"path":"translation"
					}
				},
				{
					"sampler":10,
					"target":{
						"node":3,
						"path":"rotation"
					}
				},
				{
					"sampler":11,
					"target":{
						"node":3,
						"path":"scale"
					}
				},
				{
					"sampler":12,
					"target":{
						"node":2,
						"path":"translation"
					}
				},
				{
					"sampler":13,
					"target":{
						"node":2,
						"path":"rotation"
					}
				},
				{
					"sampler":14,
					"target":{
						"node":2,
						"path":"scale"
					}
				},
				{
					"sampler":15,
					"target":{
						"node":1,
						"path":"translation"
					}
				},
				{
					"sampler":16,
					"target":{
						"node":1,
						"path":"rotation"
					}
				},
				{
					"sampler":17,
					"target":{
						"node":1,
						"path":"scale"
					}
				},
				{
					"sampler":18,
					"target":{
						"node":0,
						"path":"translation"
					}
				},
				{
					"sampler":19,
					"target":{
						"node":0,
						"path":"rotation"
					}
				},
				{
					"sampler":20,
					"target":{
						"node":0,
						"path":"scale"
					}
				},
				{
					"sampler":21,
					"target":{
						"node":7,
						"path":"translation"
					}
				},
				{
					"sampler":22,
					"target":{
						"node":7,
						"path":"rotation"
					}
				},
				{
					"sampler":23,
					"target":{
						"node":7,
						"path":"scale"
					}
				},
				{
					"sampler":24,
					"target":{
						"node":6,
						"path":"translation"
					}
				},
				{
					"sampler":25,
					"target":{
						"node":6,
						"path":"rotation"
					}
				},
				{
					"sampler":26,
					"target":{
						"node":6,
						"path":"scale"
					}
				},
				{
					"sampler":27,
					"target":{
						"node":5,
						"path":"translation"
					}
				},
				{
					"sampler":28,
					"target":{
						"node":5,
						"path":"rotation"
					}
				},
				{
					"sampler":29,
					"target":{
						"node":5,
						"path":"scale"
					}
				},
				{
					"sampler":30,
					"target":{
						"node":4,
						"path":"translation"
					}
				},
				{
					"sampler":31,
					"target":{
						"node":4,
						"path":"rotation"
					}
				},
				{
					"sampler":32,
					"target":{
						"node":4,
						"path":"scale"
					}
				},
				{
					"sampler":33,
					"target":{
						"node":11,
						"path":"translation"
					}
				},
				{
					"sampler":34,
					"target":{
						"node":11,
						"path":"rotation"
					}
				},
				{
					"sampler":35,
					"target":{
						"node":11,
						"path":"scale"
					}
				},
				{
					"sampler":36,
					"target":{
						"node":10,
						"path":"translation"
					}
				},
				{
					"sampler":37,
					"target":{
						"node":10,
						"path":"rotation"
					}
				},
				{
					"sampler":38,
					"target":{
						"node":10,
						"path":"scale"
					}
				},
				{
					"sampler":39,
					"target":{
						"node":9,
						"path":"translation"
					}
				},
				{
					"sampler":40,
					"target":{
						"node":9,
						"path":"rotation"
					}
				},
				{
					"sampler":41,
					"target":{
						"node":9,
						"path":"scale"
					}
				},
				{
					"sampler":42,
					"target":{
						"node":8,
						"path":"translation"
					}
				},
				{
					"sampler":43,
					"target":{
						"node":8,
						"path":"rotation"
					}
				},
				{
					"sampler":44,
					"target":{
						"node":8,
						"path":"scale"
					}
				},
				{
					"sampler":45,
					"target":{
						"node":15,
						"path":"translation"
					}
				},
				{
					"sampler":46,
					"target":{
						"node":15,
						"path":"rotation"
					}
				},
				{
					"sampler":47,
					"target":{
						"node":15,
						"path":"scale"
					}
				},
				{
					"sampler":48,
					"target":{
						"node":14,
						"path":"translation"
					}
				},
				{
					"sampler":49,
					"target":{
						"node":14,
						"path":"rotation"
					}
				},
				{
					"sampler":50,
					"target":{
						"node":14,
						"path":"scale"
					}
				},
				{
					"sampler":51,
					"target":{
						"node":13,
						"path":"translation"
					}
				},
				{
					"sampler":52,
					"target":{
						"node":13,
						"path":"rotation"
					}
				},
				{
					"sampler":53,
					"target":{
						"node":13,
						"path":"scale"
					}
				},
				{
					"sampler":54,
					"target":{
						"node":12,
						"path":"translation"
					}
				},
				{
					"sampler":55,
					"target":{
						"node":12,
						"path":"rotation"
					}
				},
				{
					"sampler":56,
					"target":{
						"node":12,
						"path":"scale"
					}
				},
				{
					"sampler":57,
					"target":{
						"node":19,
						"path":"translation"
					}
				},
				{
					"sampler":58,
					"target":{
						"node":19,
						"path":"rotation"
					}
				},
				{
					"sampler":59,
					"target":{
						"node":19,
						"path":"scale"
					}
				},
				{
					"sampler":60,
					"target":{
						"node":18,
						"path":"translation"
					}
				},
				{
					"sampler":61,
					"target":{
						"node":18,
						"path":"rotation"
					}
				},
				{
					"sampler":62,
					"target":{
						"node":18,
						"path":"scale"
					}
				},
				{
					"sampler":63,
					"target":{
						"node":17,
						"path":"translation"
					}
				},
				{
					"sampler":64,
					"target":{
						"node":17,
						"path":"rotation"
					}
				},
				{
					"sampler":65,
					"target":{
						"node":17,
						"path":"scale"
					}
				}
			],
			"name":"ArmatureAction",
			"samplers":[
				{
					"input":18,
					"interpolation":"STEP",
					"output":19
				},
				{
					"input":18,
					"interpolation":"STEP",
					"output":20
				},
				{
					"input":18,
					"interpolation":"STEP",
					"output":21
				},
				{
					"input":18,
					"interpolation":"STEP",
					"output":22
				},
				{
					"input":18,
					"interpolation":"STEP",
					"output":23
				},
				{
					"input":18,
					"interpolation":"STEP",
					"output":21
				},
				{
					"input":18,
					"interpolation":"STEP",
					"output":24
				},
				{
					"input":18,
					"interpolation":"STEP",
					"output":25
				},
				{
					"input":18,
					"interpolation":"STEP",
					"output":21
				},
				{
					"input":18,
					"interpolation":"STEP",
					"output":26
				},
				{
					"input":18,
					"interpolation":"STEP",
					"output":27
				},
				{
					"input":18,
					"interpolation":"STEP",
					"output":21
				},
				{
					"input":18,
					"interpolation":"STEP",
					"output":28
				},
				{
					"input":29,
					"interpolation":"LINEAR",
					"output":30
				},
				{
					"input":18,
					"interpolation":"STEP",
					"output":31
				},
				{
					"input":18,
					"interpolation":"LINEAR",
					"output":32
				},
				{
					"input":29,
					"interpolation":"LINEAR",
					"output":33
				},
				{
					"input":18,
					"interpolation":"STEP",
					"output":34
				},
				{
					"input":18,
					"interpolation":"LINEAR",
					"output":35
				},
				{
					"input":29,
					"interpolation":"LINEAR",
					"output":36
				},
				{
					"input":18,
					"interpolation":"STEP",
					"output":37
				},
				{
					"input":18,
					"interpolation":"STEP",
					"output":38
				},
				{
					"input":18,
					"interpolation":"STEP",
					"output":39
				},
				{
					"input":18,
					"interpolation":"STEP",
					"output":40
				},
				{
					"input":18,
					"interpolation":"STEP",
					"output":41
				},
				{
					"input":29,
					"interpolation":"LINEAR",
					"output":42
				},
				{
					"input":18,
					"interpolation":"STEP",
					"output":43
				},
				{
					"input":18,
					"interpolation":"LINEAR",
					"output":44
				},
				{
					"input":29,
					"interpolation":"LINEAR",
					"output":45
				},
				{
					"input":18,
					"interpolation":"STEP",
					"output":46
				},
				{
					"input":18,
					"interpolation":"LINEAR",
					"output":47
				},
				{
					"input":29,
					"interpolation":"LINEAR",
					"output":48
				},
				{
					"input":18,
					"interpolation":"STEP",
					"output":49
				},
				{
					"input":18,
					"interpolation":"STEP",
					"output":50
				},
				{
					"input":18,
					"interpolation":"STEP",
					"output":51
				},
				{
					"input":18,
					"interpolation":"STEP",
					"output":52
				},
				{
					"input":18,
					"interpolation":"STEP",
					"output":53
				},
				{
					"input":29,
					"interpolation":"LINEAR",
					"output":54
				},
				{
					"input":18,
					"interpolation":"STEP",
					"output":55
				},
				{
					"input":18,
					"interpolation":"LINEAR",
					"output":56
				},
				{
					"input":29,
					"interpolation":"LINEAR",
					"output":57
				},
				{
					"input":18,
					"interpolation":"STEP",
					"output":58
				},
				{
					"input":18,
					"interpolation":"LINEAR",
					"output":59
				},
				{
					"input":29,
					"interpolation":"LINEAR",
					"output":60
				},
				{
					"input":18,
					"interpolation":"STEP",
					"output":61
				},
				{
					"input":18,
					"interpolation":"STEP",
					"output":62
				},
				{
					"input":29,
					"interpolation":"LINEAR",
					"output":63
				},
				{
					"input":18,
					"interpolation":"STEP",
					"output":64
				},
				{
					"input":18,
					"interpolation":"LINEAR",
					"output":65
				},
				{
					"input":29,
					"interpolation":"LINEAR",
					"output":66
				},
				{
					"input":18,
					"interpolation":"STEP",
					"output":67
				},
				{
					"input":18,
					"interpolation":"LINEAR",
					"output":68
				},
				{
					"input":29,
					"interpolation":"LINEAR",
					"output":69
				},
				{
					"input":18,
					"interpolation":"STEP",
					"output":70
				},
				{
					"input":18,
					"interpolation":"LINEAR",
					"output":71
				},
				{
					"input":29,
					"interpolation":"LINEAR",
					"output":72
				},
				{
					"input":18,
					"interpolation":"STEP",
					"output":73
				},
				{
					"input":18,
					"interpolation":"STEP",
					"output":74
				},
				{
					"input":29,
					"interpolation":"LINEAR",
					"output":75
				},
				{
					"input":18,
					"interpolation":"STEP",
					"output":76
				},
				{
					"input":18,
					"interpolation":"LINEAR",
					"output":77
				},
				{
					"input":29,
					"interpolation":"LINEAR",
					"output":78
				},
				{
					"input":18,
					"interpolation":"STEP",
					"output":79
				},
				{
					"input":18,
					"interpolation":"LINEAR",
					"output":80
				},
				{
					"input":18,
					"interpolation":"LINEAR",
					"output":81
				},
				{
					"input":18,
					"interpolation":"STEP",
					"output":82
				}
			]
		},
		{
			"channels":[
				{
					"sampler":0,
					"target":{
						"node":45,
						"path":"translation"
					}
				},
				{
					"sampler":1,
					"target":{
						"node":45,
						"path":"rotation"
					}
				},
				{
					"sampler":2,
					"target":{
						"node":45,
						"path":"scale"
					}
				},
				{
					"sampler":3,
					"target":{
						"node":44,
						"path":"translation"
					}
				},
				{
					"sampler":4,
					"target":{
						"node":44,
						"path":"rotation"
					}
				},
				{
					"sampler":5,
					"target":{
						"node":44,
						"path":"scale"
					}
				},
				{
					"sampler":6,
					"target":{
						"node":40,
						"path":"translation"
					}
				},
				{
					"sampler":7,
					"target":{
						"node":40,
						"path":"rotation"
					}
				},
				{
					"sampler":8,
					"target":{
						"node":40,
						"path":"scale"
					}
				},
				{
					"sampler":9,
					"target":{
						"node":27,
						"path":"translation"
					}
				},
				{
					"sampler":10,
					"target":{
						"node":27,
						"path":"rotation"
					}
				},
				{
					"sampler":11,
					"target":{
						"node":27,
						"path":"scale"
					}
				},
				{
					"sampler":12,
					"target":{
						"node":26,
						"path":"translation"
					}
				},
				{
					"sampler":13,
					"target":{
						"node":26,
						"path":"rotation"
					}
				},
				{
					"sampler":14,
					"target":{
						"node":26,
						"path":"scale"
					}
				},
				{
					"sampler":15,
					"target":{
						"node":25,
						"path":"translation"
					}
				},
				{
					"sampler":16,
					"target":{
						"node":25,
						"path":"rotation"
					}
				},
				{
					"sampler":17,
					"target":{
						"node":25,
						"path":"scale"
					}
				},
				{
					"sampler":18,
					"target":{
						"node":24,
						"path":"translation"
					}
				},
				{
					"sampler":19,
					"target":{
						"node":24,
						"path":"rotation"
					}
				},
				{
					"sampler":20,
					"target":{
						"node":24,
						"path":"scale"
					}
				},
				{
					"sampler":21,
					"target":{
						"node":31,
						"path":"translation"
					}
				},
				{
					"sampler":22,
					"target":{
						"node":31,
						"path":"rotation"
					}
				},
				{
					"sampler":23,
					"target":{
						"node":31,
						"path":"scale"
					}
				},
				{
					"sampler":24,
					"target":{
						"node":30,
						"path":"translation"
					}
				},
				{
					"sampler":25,
					"target":{
						"node":30,
						"path":"rotation"
					}
				},
				{
					"sampler":26,
					"target":{
						"node":30,
						"path":"scale"
					}
				},
				{
					"sampler":27,
					"target":{
						"node":29,
						"path":"translation"
					}
				},
				{
					"sampler":28,
					"target":{
						"node":29,
						"path":"rotation"
					}
				},
				{
					"sampler":29,
					"target":{
						"node":29,
						"path":"scale"
					}
				},
				{
					"sampler":30,
					"target":{
						"node":28,
						"path":"translation"
					}
				},
				{
					"sampler":31,
					"target":{
						"node":28,
						"path":"rotation"
					}
				},
				{
					"sampler":32,
					"target":{
						"node":28,
						"path":"scale"
					}
				},
				{
					"sampler":33,
					"target":{
						"node":35,
						"path":"translation"
					}
				},
				{
					"sampler":34,
					"target":{
						"node":35,
						"path":"rotation"
					}
				},
				{
					"sampler":35,
					"target":{
						"node":35,
						"path":"scale"
					}
				},
				{
					"sampler":36,
					"target":{
						"node":34,
						"path":"translation"
					}
				},
				{
					"sampler":37,
					"target":{
						"node":34,
						"path":"rotation"
					}
				},
				{
					"sampler":38,
					"target":{
						"node":34,
						"path":"scale"
					}
				},
				{
					"sampler":39,
					"target":{
						"node":33,
						"path":"translation"
					}
				},
				{
					"sampler":40,
					"target":{
						"node":33,
						"path":"rotation"
					}
				},
				{
					"sampler":41,
					"target":{
						"node":33,
						"path":"scale"
					}
				},
				{
					"sampler":42,
					"target":{
						"node":32,
						"path":"translation"
					}
				},
				{
					"sampler":43,
					"target":{
						"node":32,
						"path":"rotation"
					}
				},
				{
					"sampler":44,
					"target":{
						"node":32,
						"path":"scale"
					}
				},
				{
					"sampler":45,
					"target":{
						"node":39,
						"path":"translation"
					}
				},
				{
					"sampler":46,
					"target":{
						"node":39,
						"path":"rotation"
					}
				},
				{
					"sampler":47,
					"target":{
						"node":39,
						"path":"scale"
					}
				},
				{
					"sampler":48,
					"target":{
						"node":38,
						"path":"translation"
					}
				},
				{
					"sampler":49,
					"target":{
						"node":38,
						"path":"rotation"
					}
				},
				{
					"sampler":50,
					"target":{
						"node":38,
						"path":"scale"
					}
				},
				{
					"sampler":51,
					"target":{
						"node":37,
						"path":"translation"
					}
				},
				{
					"sampler":52,
					"target":{
						"node":37,
						"path":"rotation"
					}
				},
				{
					"sampler":53,
					"target":{
						"node":37,
						"path":"scale"
					}
				},
				{
					"sampler":54,
					"target":{
						"node":36,
						"path":"translation"
					}
				},
				{
					"sampler":55,
					"target":{
						"node":36,
						"path":"rotation"
					}
				},
				{
					"sampler":56,
					"target":{
						"node":36,
						"path":"scale"
					}
				},
				{
					"sampler":57,
					"target":{
						"node":43,
						"path":"translation"
					}
				},
				{
					"sampler":58,
					"target":{
						"node":43,
						"path":"rotation"
					}
				},
				{
					"sampler":59,
					"target":{
						"node":43,
						"path":"scale"
					}
				},
				{
					"sampler":60,
					"target":{
						"node":42,
						"path":"translation"
					}
				},
				{
					"sampler":61,
					"target":{
						"node":42,
						"path":"rotation"
					}
				},
				{
					"sampler":62,
					"target":{
						"node":42,
						"path":"scale"
					}
				},
				{
					"sampler":63,
					"target":{
						"node":41,
						"path":"translation"
					}
				},
				{
					"sampler":64,
					"target":{
						"node":41,
						"path":"rotation"
					}
				},
				{
					"sampler":65,
					"target":{
						"node":41,
						"path":"scale"
					}
				}
			],
			"name":"ArmatureAction.001",
			"samplers":[
				{
					"input":18,
					"interpolation":"STEP",
					"output":19
				},
				{
					"input":18,
					"interpolation":"STEP",
					"output":20
				},
				{
					"input":18,
					"interpolation":"STEP",
					"output":21
				},
				{
					"input":18,
					"interpolation":"STEP",
					"output":22
				},
				{
					"input":18,
					"interpolation":"STEP",
					"output":23
				},
				{
					"input":18,
					"interpolation":"STEP",
					"output":21
				},
				{
					"input":18,
					"interpolation":"STEP",
					"output":24
				},
				{
					"input":18,
					"interpolation":"STEP",
					"output":25
				},
				{
					"input":18,
					"interpolation":"STEP",
					"output":21
				},
				{
					"input":18,
					"interpolation":"STEP",
					"output":26
				},
				{
					"input":18,
					"interpolation":"STEP",
					"output":27
				},
				{
					"input":18,
					"interpolation":"STEP",
					"output":21
				},
				{
					"input":18,
					"interpolation":"STEP",
					"output":28
				},
				{
					"input":29,
					"interpolation":"LINEAR",
					"output":30
				},
				{
					"input":18,
					"interpolation":"STEP",
					"output":31
				},
				{
					"input":18,
					"interpolation":"LINEAR",
					"output":32
				},
				{
					"input":29,
					"interpolation":"LINEAR",
					"output":33
				},
				{
					"input":18,
					"interpolation":"STEP",
					"output":34
				},
				{
					"input":18,
					"interpolation":"LINEAR",
					"output":35
				},
				{
					"input":29,
					"interpolation":"LINEAR",
					"output":36
				},
				{
					"input":18,
					"interpolation":"STEP",
					"output":37
				},
				{
					"input":18,
					"interpolation":"STEP",
					"output":38
				},
				{
					"input":18,
					"interpolation":"STEP",
					"output":39
				},
				{
					"input":18,
					"interpolation":"STEP",
					"output":40
				},
				{
					"input":18,
					"interpolation":"STEP",
					"output":41
				},
				{
					"input":29,
					"interpolation":"LINEAR",
					"output":42
				},
				{
					"input":18,
					"interpolation":"STEP",
					"output":43
				},
				{
					"input":18,
					"interpolation":"LINEAR",
					"output":44
				},
				{
					"input":29,
					"interpolation":"LINEAR",
					"output":45
				},
				{
					"input":18,
					"interpolation":"STEP",
					"output":46
				},
				{
					"input":18,
					"interpolation":"LINEAR",
					"output":47
				},
				{
					"input":29,
					"interpolation":"LINEAR",
					"output":48
				},
				{
					"input":18,
					"interpolation":"STEP",
					"output":49
				},
				{
					"input":18,
					"interpolation":"STEP",
					"output":50
				},
				{
					"input":18,
					"interpolation":"STEP",
					"output":51
				},
				{
					"input":18,
					"interpolation":"STEP",
					"output":52
				},
				{
					"input":18,
					"interpolation":"STEP",
					"output":53
				},
				{
					"input":29,
					"interpolation":"LINEAR",
					"output":54
				},
				{
					"input":18,
					"interpolation":"STEP",
					"output":55
				},
				{
					"input":18,
					"interpolation":"LINEAR",
					"output":56
				},
				{
					"input":29,
					"interpolation":"LINEAR",
					"output":57
				},
				{
					"input":18,
					"interpolation":"STEP",
					"output":58
				},
				{
					"input":18,
					"interpolation":"LINEAR",
					"output":59
				},
				{
					"input":29,
					"interpolation":"LINEAR",
					"output":60
				},
				{
					"input":18,
					"interpolation":"STEP",
					"output":61
				},
				{
					"input":18,
					"interpolation":"STEP",
					"output":62
				},
				{
					"input":29,
					"interpolation":"LINEAR",
					"output":63
				},
				{
					"input":18,
					"interpolation":"STEP",
					"output":64
				},
				{
					"input":18,
					"interpolation":"LINEAR",
					"output":65
				},
				{
					"input":29,
					"interpolation":"LINEAR",
					"output":66
				},
				{
					"input":18,
					"interpolation":"STEP",
					"output":67
				},
				{
					"input":18,
					"interpolation":"LINEAR",
					"output":68
				},
				{
					"input":29,
					"interpolation":"LINEAR",
					"output":69
				},
				{
					"input":18,
					"interpolation":"STEP",
					"output":70
				},
				{
					"input":18,
					"interpolation":"LINEAR",
					"output":71
				},
				{
					"input":29,
					"interpolation":"LINEAR",
					"output":72
				},
				{
					"input":18,
					"interpolation":"STEP",
					"output":73
				},
				{
					"input":18,
					"interpolation":"STEP",
					"output":74
				},
				{
					"input":29,
					"interpolation":"LINEAR",
					"output":75
				},
				{
					"input":18,
					"interpolation":"STEP",
					"output":76
				},
				{
					"input":18,
					"interpolation":"LINEAR",
					"output":77
				},
				{
					"input":29,
					"interpolation":"LINEAR",
					"output":78
				},
				{
					"input":18,
					"interpolation":"STEP",
					"output":79
				},
				{
					"input":18,
					"interpolation":"LINEAR",
					"output":80
				},
				{
					"input":18,
					"interpolation":"LINEAR",
					"output":81
				},
				{
					"input":18,
					"interpolation":"STEP",
					"output":82
				}
			]
		}
	],
	"materials":[
		{
			"doubleSided":true,
			"name":"Hand_skin_mat"
		}
	],
	"meshes":[
		{
			"name":"Plane.003",
			"primitives":[
				{
					"attributes":{
						"POSITION":0,
						"NORMAL":1,
						"TEXCOORD_0":2,
						"COLOR_0":3,
						"COLOR_1":4,
						"JOINTS_0":5,
						"WEIGHTS_0":6
					},
					"indices":7,
					"material":0
				}
			]
		},
		{
			"name":"Plane.001",
			"primitives":[
				{
					"attributes":{
						"POSITION":9,
						"NORMAL":10,
						"TEXCOORD_0":11,
						"COLOR_0":12,
						"COLOR_1":13,
						"JOINTS_0":14,
						"WEIGHTS_0":15
					},
					"indices":16,
					"material":0
				}
			]
		}
	],
	"skins":[
		{
			"inverseBindMatrices":8,
			"joints":[
				21,
				20,
				16,
				3,
				2,
				1,
				0,
				7,
				6,
				5,
				4,
				11,
				10,
				9,
				8,
				15,
				14,
				13,
				12,
				19,
				18,
				17
			],
			"name":"left"
		},
		{
			"inverseBindMatrices":17,
			"joints":[
				45,
				44,
				40,
				27,
				26,
				25,
				24,
				31,
				30,
				29,
				28,
				35,
				34,
				33,
				32,
				39,
				38,
				37,
				36,
				43,
				42,
				41
			],
			"name":"right"
		}
	],
	"accessors":[
		{
			"bufferView":0,
			"componentType":5126,
			"count":2237,
			"max":[
				-0.10638487339019775,
				0.19162988662719727,
				0.020415430888533592
			],
			"min":[
				-0.18947596848011017,
				0.004087958950549364,
				-0.045438241213560104
			],
			"type":"VEC3"
		},
		{
			"bufferView":1,
			"componentType":5126,
			"count":2237,
			"type":"VEC3"
		},
		{
			"bufferView":2,
			"componentType":5126,
			"count":2237,
			"type":"VEC2"
		},
		{
			"bufferView":3,
			"componentType":5121,
			"count":2237,
			"normalized":true,
			"type":"VEC4"
		},
		{
			"bufferView":4,
			"componentType":5123,
			"count":2237,
			"normalized":true,
			"type":"VEC4"
		},
		{
			"bufferView":5,
			"componentType":5121,
			"count":2237,
			"type":"VEC4"
		},
		{
			"bufferView":6,
			"componentType":5126,
			"count":2237,
			"type":"VEC4"
		},
		{
			"bufferView":7,
			"componentType":5123,
			"count":11598,
			"type":"SCALAR"
		},
		{
			"bufferView":8,
			"componentType":5126,
			"count":22,
			"type":"MAT4"
		},
		{
			"bufferView":9,
			"componentType":5126,
			"count":2237,
			"max":[
				0.18947596848011017,
				0.19162988662719727,
				0.020415430888533592
			],
			"min":[
				0.10638487339019775,
				0.004087958950549364,
				-0.045438241213560104
			],
			"type":"VEC3"
		},
		{
			"bufferView":10,
			"componentType":5126,
			"count":2237,
			"type":"VEC3"
		},
		{
			"bufferView":11,
			"componentType":5126,
			"count":2237,
			"type":"VEC2"
		},
		{
			"bufferView":12,
			"componentType":5121,
			"count":2237,
			"normalized":true,
			"type":"VEC4"
		},
		{
			"bufferView":13,
			"componentType":5123,
			"count":2237,
			"normalized":true,
			"type":"VEC4"
		},
		{
			"bufferView":14,
			"componentType":5121,
			"count":2237,
			"type":"VEC4"
		},
		{
			"bufferView":15,
			"componentType":5126,
			"count":2237,
			"type":"VEC4"
		},
		{
			"bufferView":16,
			"componentType":5123,
			"count":11598,
			"type":"SCALAR"
		},
		{
			"bufferView":17,
			"componentType":5126,
			"count":22,
			"type":"MAT4"
		},
		{
			"bufferView":18,
			"componentType":5126,
			"count":2,
			"max":[
				0.4166666666666667
			],
			"min":[
				0
			],
			"type":"SCALAR"
		},
		{
			"bufferView":19,
			"componentType":5126,
			"count":2,
			"type":"VEC3"
		},
		{
			"bufferView":20,
			"componentType":5126,
			"count":2,
			"type":"VEC4"
		},
		{
			"bufferView":21,
			"componentType":5126,
			"count":2,
			"type":"VEC3"
		},
		{
			"bufferView":22,
			"componentType":5126,
			"count":2,
			"type":"VEC3"
		},
		{
			"bufferView":23,
			"componentType":5126,
			"count":2,
			"type":"VEC4"
		},
		{
			"bufferView":24,
			"componentType":5126,
			"count":2,
			"type":"VEC3"
		},
		{
			"bufferView":25,
			"componentType":5126,
			"count":2,
			"type":"VEC4"
		},
		{
			"bufferView":26,
			"componentType":5126,
			"count":2,
			"type":"VEC3"
		},
		{
			"bufferView":27,
			"componentType":5126,
			"count":2,
			"type":"VEC4"
		},
		{
			"bufferView":28,
			"componentType":5126,
			"count":2,
			"type":"VEC3"
		},
		{
			"bufferView":29,
			"componentType":5126,
			"count":11,
			"max":[
				0.4166666666666667
			],
			"min":[
				0
			],
			"type":"SCALAR"
		},
		{
			"bufferView":30,
			"componentType":5126,
			"count":11,
			"type":"VEC4"
		},
		{
			"bufferView":31,
			"componentType":5126,
			"count":2,
			"type":"VEC3"
		},
		{
			"bufferView":32,
			"componentType":5126,
			"count":2,
			"type":"VEC3"
		},
		{
			"bufferView":33,
			"componentType":5126,
			"count":11,
			"type":"VEC4"
		},
		{
			"bufferView":34,
			"componentType":5126,
			"count":2,
			"type":"VEC3"
		},
		{
			"bufferView":35,
			"componentType":5126,
			"count":2,
			"type":"VEC3"
		},
		{
			"bufferView":36,
			"componentType":5126,
			"count":11,
			"type":"VEC4"
		},
		{
			"bufferView":37,
			"componentType":5126,
			"count":2,
			"type":"VEC3"
		},
		{
			"bufferView":38,
			"componentType":5126,
			"count":2,
			"type":"VEC3"
		},
		{
			"bufferView":39,
			"componentType":5126,
			"count":2,
			"type":"VEC4"
		},
		{
			"bufferView":40,
			"componentType":5126,
			"count":2,
			"type":"VEC3"
		},
		{
			"bufferView":41,
			"componentType":5126,
			"count":2,
			"type":"VEC3"
		},
		{
			"bufferView":42,
			"componentType":5126,
			"count":11,
			"type":"VEC4"
		},
		{
			"bufferView":43,
			"componentType":5126,
			"count":2,
			"type":"VEC3"
		},
		{
			"bufferView":44,
			"componentType":5126,
			"count":2,
			"type":"VEC3"
		},
		{
			"bufferView":45,
			"componentType":5126,
			"count":11,
			"type":"VEC4"
		},
		{
			"bufferView":46,
			"componentType":5126,
			"count":2,
			"type":"VEC3"
		},
		{
			"bufferView":47,
			"componentType":5126,
			"count":2,
			"type":"VEC3"
		},
		{
			"bufferView":48,
			"componentType":5126,
			"count":11,
			"type":"VEC4"
		},
		{
			"bufferView":49,
			"componentType":5126,
			"count":2,
			"type":"VEC3"
		},
		{
			"bufferView":50,
			"componentType":5126,
			"count":2,
			"type":"VEC3"
		},
		{
			"bufferView":51,
			"componentType":5126,
			"count":2,
			"type":"VEC4"
		},
		{
			"bufferView":52,
			"componentType":5126,
			"count":2,
			"type":"VEC3"
		},
		{
			"bufferView":53,
			"componentType":5126,
			"count":2,
			"type":"VEC3"
		},
		{
			"bufferView":54,
			"componentType":5126,
			"count":11,
			"type":"VEC4"
		},
		{
			"bufferView":55,
			"componentType":5126,
			"count":2,
			"type":"VEC3"
		},
		{
			"bufferView":56,
			"componentType":5126,
			"count":2,
			"type":"VEC3"
		},
		{
			"bufferView":57,
			"componentType":5126,
			"count":11,
			"type":"VEC4"
		},
		{
			"bufferView":58,
			"componentType":5126,
			"count":2,
			"type":"VEC3"
		},
		{
			"bufferView":59,
			"componentType":5126,
			"count":2,
			"type":"VEC3"
		},
		{
			"bufferView":60,
			"componentType":5126,
			"count":11,
			"type":"VEC4"
		},
		{
			"bufferView":61,
			"componentType":5126,
			"count":2,
			"type":"VEC3"
		},
		{
			"bufferView":62,
			"componentType":5126,
			"count":2,
			"type":"VEC3"
		},
		{
			"bufferView":63,
			"componentType":5126,
			"count":11,
			"type":"VEC4"
		},
		{
			"bufferView":64,
			"componentType":5126,
			"count":2,
			"type":"VEC3"
		},
		{
			"bufferView":65,
			"componentType":5126,
			"count":2,
			"type":"VEC3"
		},
		{
			"bufferView":66,
			"componentType":5126,
			"count":11,
			"type":"VEC4"
		},
		{
			"bufferView":67,
			"componentType":5126,
			"count":2,
			"type":"VEC3"
		},
		{
			"bufferView":68,
			"componentType":5126,
			"count":2,
			"type":"VEC3"
		},
		{
			"bufferView":69,
			"componentType":5126,
			"count":11,
			"type":"VEC4"
		},
		{
			"bufferView":70,
			"componentType":5126,
			"count":2,
			"type":"VEC3"
		},
		{
			"bufferView":71,
			"componentType":5126,
			"count":2,
			"type":"VEC3"
		},
		{
			"bufferView":72,
			"componentType":5126,
			"count":11,
			"type":"VEC4"
		},
		{
			"bufferView":73,
			"componentType":5126,
			"count":2,
			"type":"VEC3"
		},
		{
			"bufferView":74,
			"componentType":5126,
			"count":2,
			"type":"VEC3"
		},
		{
			"bufferView":75,
			"componentType":5126,
			"count":11,
			"type":"VEC4"
		},
		{
			"bufferView":76,
			"componentType":5126,
			"count":2,
			"type":"VEC3"
		},
		{
			"bufferView":77,
			"componentType":5126,
			"count":2,
			"type":"VEC3"
		},
		{
			"bufferView":78,
			"componentType":5126,
			"count":11,
			"type":"VEC4"
		},
		{
			"bufferView":79,
			"componentType":5126,
			"count":2,
			"type":"VEC3"
		},
		{
			"bufferView":80,
			"componentType":5126,
			"count":2,
			"type":"VEC3"
		},
		{
			"bufferView":81,
			"componentType":5126,
			"count":2,
			"type":"VEC4"
		},
		{
			"bufferView":82,
			"componentType":5126,
			"count":2,
			"type":"VEC3"
		}
	],
	"bufferViews":[
		{
			"buffer":0,
			"byteLength":26844,
			"byteOffset":0,
			"target":34962
		},
		{
			"buffer":0,
			"byteLength":26844,
			"byteOffset":26844,
			"target":34962
		},
		{
			"buffer":0,
			"byteLength":17896,
			"byteOffset":53688,
			"target":34962
		},
		{
			"buffer":0,
			"byteLength":8948,
			"byteOffset":71584,
			"target":34962
		},
		{
			"buffer":0,
			"byteLength":17896,
			"byteOffset":80532,
			"target":34962
		},
		{
			"buffer":0,
			"byteLength":8948,
			"byteOffset":98428,
			"target":34962
		},
		{
			"buffer":0,
			"byteLength":35792,
			"byteOffset":107376,
			"target":34962
		},
		{
			"buffer":0,
			"byteLength":23196,
			"byteOffset":143168,
			"target":34963
		},
		{
			"buffer":0,
			"byteLength":1408,
			"byteOffset":166364
		},
		{
			"buffer":0,
			"byteLength":26844,
			"byteOffset":167772,
			"target":34962
		},
		{
			"buffer":0,
			"byteLength":26844,
			"byteOffset":194616,
			"target":34962
		},
		{
			"buffer":0,
			"byteLength":17896,
			"byteOffset":221460,
			"target":34962
		},
		{
			"buffer":0,
			"byteLength":8948,
			"byteOffset":239356,
			"target":34962
		},
		{
			"buffer":0,
			"byteLength":17896,
			"byteOffset":248304,
			"target":34962
		},
		{
			"buffer":0,
			"byteLength":8948,
			"byteOffset":266200,
			"target":34962
		},
		{
			"buffer":0,
			"byteLength":35792,
			"byteOffset":275148,
			"target":34962
		},
		{
			"buffer":0,
			"byteLength":23196,
			"byteOffset":310940,
			"target":34963
		},
		{
			"buffer":0,
			"byteLength":1408,
			"byteOffset":334136
		},
		{
			"buffer":0,
			"byteLength":8,
			"byteOffset":335544
		},
		{
			"buffer":0,
			"byteLength":24,
			"byteOffset":335552
		},
		{
			"buffer":0,
			"byteLength":32,
			"byteOffset":335576
		},
		{
			"buffer":0,
			"byteLength":24,
			"byteOffset":335608
		},
		{
			"buffer":0,
			"byteLength":24,
			"byteOffset":335632
		},
		{
			"buffer":0,
			"byteLength":32,
			"byteOffset":335656
		},
		{
			"buffer":0,
			"byteLength":24,
			"byteOffset":335688
		},
		{
			"buffer":0,
			"byteLength":32,
			"byteOffset":335712
		},
		{
			"buffer":0,
			"byteLength":24,
			"byteOffset":335744
		},
		{
			"buffer":0,
			"byteLength":32,
			"byteOffset":335768
		},
		{
			"buffer":0,
			"byteLength":24,
			"byteOffset":335800
		},
		{
			"buffer":0,
			"byteLength":44,
			"byteOffset":335824
		},
		{
			"buffer":0,
			"byteLength":176,
			"byteOffset":335868
		},
		{
			"buffer":0,
			"byteLength":24,
			"byteOffset":336044
		},
		{
			"buffer":0,
			"byteLength":24,
			"byteOffset":336068
		},
		{
			"buffer":0,
			"byteLength":176,
			"byteOffset":336092
		},
		{
			"buffer":0,
			"byteLength":24,
			"byteOffset":336268
		},
		{
			"buffer":0,
			"byteLength":24,
			"byteOffset":336292
		},
		{
			"buffer":0,
			"byteLength":176,
			"byteOffset":336316
		},
		{
			"buffer":0,
			"byteLength":24,
			"byteOffset":336492
		},
		{
			"buffer":0,
			"byteLength":24,
			"byteOffset":336516
		},
		{
			"buffer":0,
			"byteLength":32,
			"byteOffset":336540
		},
		{
			"buffer":0,
			"byteLength":24,
			"byteOffset":336572
		},
		{
			"buffer":0,
			"byteLength":24,
			"byteOffset":336596
		},
		{
			"buffer":0,
			"byteLength":176,
			"byteOffset":336620
		},
		{
			"buffer":0,
			"byteLength":24,
			"byteOffset":336796
		},
		{
			"buffer":0,
			"byteLength":24,
			"byteOffset":336820
		},
		{
			"buffer":0,
			"byteLength":176,
			"byteOffset":336844
		},
		{
			"buffer":0,
			"byteLength":24,
			"byteOffset":337020
		},
		{
			"buffer":0,
			"byteLength":24,
			"byteOffset":337044
		},
		{
			"buffer":0,
			"byteLength":176,
			"byteOffset":337068
		},
		{
			"buffer":0,
			"byteLength":24,
			"byteOffset":337244
		},
		{
			"buffer":0,
			"byteLength":24,
			"byteOffset":337268
		},
		{
			"buffer":0,
			"byteLength":32,
			"byteOffset":337292
		},
		{
			"buffer":0,
			"byteLength":24,
			"byteOffset":337324
		},
		{
			"buffer":0,
			"byteLength":24,
			"byteOffset":337348
		},
		{
			"buffer":0,
			"byteLength":176,
			"byteOffset":337372
		},
		{
			"buffer":0,
			"byteLength":24,
			"byteOffset":337548
		},
		{
			"buffer":0,
			"byteLength":24,
			"byteOffset":337572
		},
		{
			"buffer":0,
			"byteLength":176,
			"byteOffset":337596
		},
		{
			"buffer":0,
			"byteLength":24,
			"byteOffset":337772
		},
		{
			"buffer":0,
			"byteLength":24,
			"byteOffset":337796
		},
		{
			"buffer":0,
			"byteLength":176,
			"byteOffset":337820
		},
		{
			"buffer":0,
			"byteLength":24,
			"byteOffset":337996
		},
		{
			"buffer":0,
			"byteLength":24,
			"byteOffset":338020
		},
		{
			"buffer":0,
			"byteLength":176,
			"byteOffset":338044
		},
		{
			"buffer":0,
			"byteLength":24,
			"byteOffset":338220
		},
		{
			"buffer":0,
			"byteLength":24,
			"byteOffset":338244
		},
		{
			"buffer":0,
			"byteLength":176,
			"byteOffset":338268
		},
		{
			"buffer":0,
			"byteLength":24,
			"byteOffset":338444
		},
		{
			"buffer":0,
			"byteLength":24,
			"byteOffset":338468
		},
		{
			"buffer":0,
			"byteLength":176,
			"byteOffset":338492
		},
		{
			"buffer":0,
			"byteLength":24,
			"byteOffset":338668
		},
		{
			"buffer":0,
			"byteLength":24,
			"byteOffset":338692
		},
		{
			"buffer":0,
			"byteLength":176,
			"byteOffset":338716
		},
		{
			"buffer":0,
			"byteLength":24,
			"byteOffset":338892
		},
		{
			"buffer":0,
			"byteLength":24,
			"byteOffset":338916
		},
		{
			"buffer":0,
			"byteLength":176,
			"byteOffset":338940
		},
		{
			"buffer":0,
			"byteLength":24,
			"byteOffset":339116
		},
		{
			"buffer":0,
			"byteLength":24,
			"byteOffset":339140
		},
		{
			"buffer":0,
			"byteLength":176,
			"byteOffset":339164
		},
		{
			"buffer":0,
			"byteLength":24,
			"byteOffset":339340
		},
		{
			"buffer":0,
			"byteLength":24,
			"byteOffset":339364
		},
		{
			"buffer":0,
			"byteLength":32,
			"byteOffset":339388
		},
		{
			"buffer":0,
			"byteLength":24,
			"byteOffset":339420
		}
	],
	"buffers":[
		{
			"byteLength":339444,
			"uri":"hands.bin"
		}
	]
}
